v -0.161830 -0.297668 -0.230281
v -0.135568 -0.302053 -0.231757
v -0.087741 -0.307636 -0.228925
v -0.063898 -0.309006 -0.227073
v -0.178762 -0.288996 -0.229255
v -0.135942 -0.292472 -0.232692
v -0.100685 -0.296061 -0.229289
v -0.078409 -0.015445 -0.239990
v -0.034458 -0.028794 -0.232942
v -0.001021 -0.016188 -0.240680
v -0.121986 0.009545 -0.237048
v -0.094366 0.012405 -0.244279
v -0.040697 0.015239 -0.243253
v 0.008189 0.017015 -0.248456
v 0.049990 0.012424 -0.238817
v -0.164330 0.066098 -0.231676
v -0.133532 0.062242 -0.250494
v -0.093613 0.057045 -0.238972
v -0.045557 0.067001 -0.234098
v 0.015698 0.059041 -0.237880
v 0.053889 0.064878 -0.253630
v 0.083875 0.072904 -0.238308
v -0.163095 0.099240 -0.236958
v -0.145955 0.101451 -0.247534
v -0.095218 0.115219 -0.243715
v -0.041883 0.118670 -0.238508
v 0.016483 0.113631 -0.242876
v 0.055338 0.107035 -0.256792
v 0.084542 0.100735 -0.240631
v -0.122735 0.169811 -0.248423
v -0.087424 0.157756 -0.258535
v -0.042406 0.159715 -0.254824
v 0.005791 0.155097 -0.258330
v 0.045709 0.166149 -0.251990
v 0.080292 0.137352 -0.240090
v -0.118601 0.187231 -0.239932
v -0.084633 0.201823 -0.237368
v -0.041330 0.209851 -0.242971
v 0.005019 0.204783 -0.235864
v 0.037171 0.189143 -0.232134
v -0.162571 -0.476723 -0.184565
v -0.146617 -0.464777 -0.186728
v -0.132338 -0.421797 -0.184511
v -0.018942 -0.346354 -0.211543
v 0.004740 -0.358100 -0.192939
v -0.122096 -0.297974 -0.222026
v -0.078440 -0.307707 -0.219320
v -0.039962 -0.320856 -0.211804
v -0.006650 -0.338529 -0.197659
v -0.265430 -0.276028 -0.191946
v -0.234124 -0.272303 -0.208643
v -0.186073 -0.271813 -0.207210
v -0.139042 -0.268531 -0.194533
v -0.088616 -0.280968 -0.193683
v -0.052029 -0.287366 -0.184661
v -0.225281 -0.242921 -0.183964
v -0.189958 -0.242888 -0.184074
v -0.159048 -0.245519 -0.179296
v -0.115819 -0.011001 -0.212309
v -0.087917 -0.022140 -0.199062
v -0.042371 -0.030887 -0.198872
v 0.011875 -0.021827 -0.195082
v 0.044854 -0.018144 -0.198831
v 0.086348 -0.013634 -0.180926
v -0.131492 0.014581 -0.201534
v -0.101104 -0.001474 -0.182570
v 0.026203 -0.008300 -0.184703
v 0.058045 0.011678 -0.201846
v 0.104587 0.026069 -0.183020
v 0.128815 0.027163 -0.178741
v -0.163175 0.073850 -0.210592
v -0.151779 0.054577 -0.198687
v 0.076636 0.047302 -0.196991
v 0.089755 0.064138 -0.200880
v 0.133706 0.063387 -0.182875
v -0.167917 0.115610 -0.195482
v -0.156361 0.118330 -0.202021
v 0.075391 0.121307 -0.198689
v 0.096844 0.108565 -0.201831
v 0.136715 0.114689 -0.181637
v -0.170005 0.144089 -0.194839
v -0.143910 0.157163 -0.215243
v 0.065515 0.161101 -0.213221
v 0.095178 0.151162 -0.202725
v 0.140748 0.161232 -0.186058
v -0.181466 0.208116 -0.190265
v -0.128121 0.192230 -0.211210
v -0.101810 0.208076 -0.217164
v -0.041771 0.222656 -0.220377
v 0.005108 0.216724 -0.217696
v 0.057530 0.203353 -0.206814
v 0.092480 0.220471 -0.197327
v 0.136948 0.199913 -0.183903
v -0.178888 0.252326 -0.188595
v -0.130423 0.255347 -0.204432
v -0.093789 0.251139 -0.215014
v -0.035953 0.253508 -0.219580
v 0.000347 0.246268 -0.217239
v 0.056836 0.252848 -0.205736
v 0.107709 0.251317 -0.188903
v 0.131041 0.264998 -0.180477
v -0.172674 0.297588 -0.184168
v -0.140206 0.302835 -0.196120
v -0.074982 0.292012 -0.215013
v -0.053776 0.299232 -0.216805
v 0.006616 0.302205 -0.213623
v 0.059414 0.303755 -0.203996
v 0.102004 0.299140 -0.188515
v -0.162231 0.328278 -0.181854
v -0.131633 0.346572 -0.188161
v -0.090163 0.354056 -0.197486
v -0.030956 0.339787 -0.212037
v 0.007865 0.356231 -0.208188
v 0.047653 0.365702 -0.198492
v 0.091032 0.349225 -0.186111
v -0.118027 0.378845 -0.181595
v -0.085517 0.390153 -0.185611
v -0.038084 0.397452 -0.188229
v 0.003579 0.395559 -0.190316
v 0.062478 0.379766 -0.193558
v 0.094040 0.381570 -0.184722
v -0.161478 -0.476879 -0.176906
v -0.145911 -0.464839 -0.173931
v -0.214881 -0.396240 -0.159644
v -0.202073 -0.397725 -0.162911
v -0.128670 -0.417812 -0.167512
v -0.109309 -0.397487 -0.164361
v 0.054341 -0.400546 -0.138281
v -0.212625 -0.371132 -0.158027
v -0.199567 -0.367035 -0.157633
v -0.121082 -0.371551 -0.155928
v -0.102517 -0.365639 -0.152772
v 0.020917 -0.363023 -0.155963
v 0.039504 -0.380851 -0.152602
v -0.191709 -0.320675 -0.146730
v -0.115297 -0.333757 -0.140233
v -0.097219 -0.324573 -0.140693
v -0.026732 -0.306874 -0.169304
v 0.002650 -0.324658 -0.148594
v -0.277050 -0.273105 -0.154988
v -0.243821 -0.252670 -0.171377
v -0.176551 -0.277389 -0.139712
v -0.158817 -0.254584 -0.172800
v -0.041794 -0.273973 -0.158439
v -0.005246 -0.291049 -0.135885
v -0.259624 -0.241223 -0.149491
v -0.230942 -0.227050 -0.153659
v -0.186505 -0.222790 -0.159402
v -0.156065 -0.225781 -0.158306
v -0.070193 -0.218216 -0.144932
v -0.048253 -0.234025 -0.141456
v -0.013398 -0.201416 -0.131363
v -0.217558 -0.192777 -0.138212
v -0.188779 -0.180217 -0.139044
v -0.146719 -0.178830 -0.141035
v -0.081252 -0.173336 -0.145178
v -0.041678 -0.172579 -0.140144
v -0.008836 -0.171155 -0.133745
v -0.173524 -0.131242 -0.134348
v -0.131270 -0.121699 -0.140062
v -0.095192 -0.127002 -0.147648
v -0.033054 -0.122169 -0.145998
v -0.000389 -0.132439 -0.140303
v 0.056100 -0.125270 -0.155859
v 0.100943 -0.127461 -0.145458
v 0.141258 -0.110977 -0.132980
v -0.169956 -0.080287 -0.135717
v -0.135956 -0.072376 -0.143964
v -0.092509 -0.086259 -0.151900
v -0.041023 -0.087000 -0.157794
v 0.001149 -0.082611 -0.167648
v 0.054192 -0.086294 -0.173718
v 0.100796 -0.083076 -0.162766
v 0.141497 -0.073507 -0.139399
v -0.171459 -0.039315 -0.137929
v -0.145092 -0.042437 -0.151823
v -0.091756 -0.039717 -0.174291
v -0.038683 -0.034368 -0.172677
v -0.004136 -0.039607 -0.176239
v 0.073158 -0.047878 -0.178329
v 0.106717 -0.035606 -0.169667
v 0.157895 -0.024727 -0.144158
v 0.178345 -0.010975 -0.134888
v -0.181956 0.019893 -0.150561
v -0.141860 0.012211 -0.172774
v -0.040790 -0.003858 -0.176432
v 0.120627 0.011101 -0.175993
v 0.148136 0.006788 -0.162920
v 0.186786 0.019670 -0.139839
v -0.215495 0.065936 -0.138947
v -0.190386 0.062714 -0.159218
v -0.153763 0.041344 -0.175201
v 0.160110 0.061714 -0.168399
v 0.185832 0.062908 -0.143717
v -0.226267 0.124613 -0.147601
v -0.198861 0.121760 -0.170615
v 0.162359 0.109458 -0.163578
v 0.182525 0.110177 -0.138688
v -0.230631 0.159594 -0.153229
v -0.204590 0.152817 -0.175041
v 0.166458 0.158508 -0.173796
v 0.200993 0.157384 -0.153251
v 0.225901 0.165354 -0.134541
v -0.232609 0.205826 -0.153494
v -0.206185 0.205830 -0.176609
v 0.162756 0.205182 -0.171219
v 0.199677 0.205054 -0.147133
v -0.229153 0.253138 -0.151661
v -0.202138 0.260664 -0.174170
v 0.125849 0.278025 -0.177933
v 0.149063 0.262980 -0.171662
v 0.193648 0.254973 -0.147165
v -0.222908 0.305553 -0.145331
v -0.194827 0.305522 -0.169047
v 0.124823 0.296553 -0.176525
v 0.142210 0.300480 -0.167724
v 0.192483 0.299711 -0.137759
v -0.216488 0.334953 -0.140160
v -0.185613 0.352254 -0.157436
v -0.150517 0.366172 -0.173072
v 0.116419 0.356742 -0.172328
v 0.162704 0.354747 -0.150196
v 0.182098 0.364812 -0.146119
v -0.176448 0.388953 -0.143307
v -0.137461 0.402745 -0.157564
v -0.095855 0.411797 -0.169917
v -0.041152 0.418732 -0.175855
v 0.007220 0.419335 -0.176815
v 0.059833 0.409935 -0.171282
v 0.111938 0.390598 -0.166867
v 0.157125 0.390007 -0.149567
v 0.183258 0.389750 -0.155972
v -0.125742 0.429193 -0.139766
v -0.086289 0.435968 -0.149262
v -0.037253 0.440750 -0.153999
v 0.004291 0.443630 -0.152512
v 0.053278 0.441381 -0.146616
v 0.098386 0.431678 -0.140468
v -0.117698 -0.469913 -0.085936
v -0.106998 -0.472498 -0.085834
v -0.052418 -0.471375 -0.084861
v 0.102279 -0.442515 -0.083778
v -0.116785 -0.418884 -0.086277
v -0.105389 -0.420223 -0.087972
v -0.047800 -0.418947 -0.086120
v 0.070255 -0.412237 -0.113553
v 0.090288 -0.429492 -0.095483
v -0.114120 -0.387375 -0.084518
v -0.101690 -0.370187 -0.086175
v -0.042498 -0.366043 -0.087261
v 0.026232 -0.359924 -0.126180
v 0.053610 -0.373132 -0.101558
v -0.185333 -0.305167 -0.128880
v -0.113420 -0.319977 -0.127075
v -0.099808 -0.313940 -0.118920
v -0.042003 -0.320445 -0.087818
v 0.020209 -0.306446 -0.100177
v 0.040185 -0.324834 -0.091406
v -0.286351 -0.276123 -0.107768
v -0.176756 -0.273875 -0.120718
v -0.155095 -0.259317 -0.118172
v -0.094750 -0.275422 -0.105322
v -0.038556 -0.271088 -0.096944
v 0.004682 -0.280899 -0.110956
v 0.037967 -0.271235 -0.088067
v -0.262434 -0.236173 -0.103435
v -0.247474 -0.222529 -0.107142
v -0.167955 -0.236448 -0.111185
v -0.147650 -0.224976 -0.103331
v -0.087807 -0.232650 -0.091517
v -0.038772 -0.227885 -0.096344
v 0.005734 -0.228691 -0.102533
v 0.035159 -0.206375 -0.087059
v -0.224231 -0.179417 -0.107774
v -0.195500 -0.163504 -0.124594
v -0.138236 -0.181634 -0.092305
v -0.070599 -0.175364 -0.095293
v -0.039558 -0.175114 -0.094934
v 0.011300 -0.174946 -0.112281
v 0.041890 -0.168494 -0.097998
v 0.114220 -0.175972 -0.095736
v 0.150636 -0.170346 -0.097112
v 0.186827 -0.167067 -0.087846
v -0.214694 -0.135743 -0.096494
v -0.189505 -0.125897 -0.116294
v -0.136191 -0.130000 -0.103110
v -0.079201 -0.135393 -0.101210
v -0.049213 -0.146460 -0.101700
v 0.011332 -0.148238 -0.125123
v 0.047684 -0.150742 -0.129944
v 0.112345 -0.149967 -0.128395
v 0.165589 -0.133571 -0.109981
v 0.188029 -0.124642 -0.098459
v -0.211949 -0.082660 -0.089870
v -0.186823 -0.081697 -0.110686
v -0.141151 -0.087653 -0.109108
v 0.170894 -0.080290 -0.119524
v 0.196568 -0.079562 -0.100245
v -0.215063 -0.030932 -0.092088
v -0.189246 -0.040341 -0.109921
v 0.172194 -0.043023 -0.124724
v 0.193035 -0.036438 -0.108586
v -0.221567 0.016019 -0.103411
v -0.203497 0.005266 -0.124782
v 0.205921 0.015179 -0.108390
v -0.257599 0.082176 -0.084183
v -0.238379 0.063600 -0.106080
v 0.199596 0.073956 -0.105054
v -0.263242 0.124365 -0.096584
v -0.249327 0.123045 -0.117994
v 0.173541 0.102126 -0.127928
v 0.200462 0.108672 -0.106244
v -0.267505 0.161312 -0.103812
v -0.252604 0.155553 -0.128342
v 0.217580 0.139224 -0.121794
v 0.242411 0.156149 -0.101933
v -0.267281 0.205650 -0.107311
v 0.220574 0.215145 -0.128248
v 0.246024 0.205867 -0.100617
v -0.265639 0.253002 -0.101788
v -0.250412 0.260354 -0.125232
v 0.218201 0.267911 -0.121656
v 0.239917 0.251762 -0.097888
v -0.260460 0.298884 -0.092043
v -0.245440 0.309188 -0.113735
v 0.208306 0.312412 -0.120030
v 0.230907 0.303243 -0.095224
v -0.232448 0.348337 -0.107189
v -0.205689 0.371903 -0.127193
v 0.173843 0.374146 -0.130096
v 0.199827 0.363668 -0.115531
v 0.227428 0.342616 -0.090588
v -0.216307 0.385827 -0.095024
v -0.189852 0.405496 -0.107936
v -0.155121 0.420349 -0.129684
v 0.165959 0.407278 -0.116946
v 0.189216 0.389521 -0.107306
v -0.170013 0.429604 -0.095506
v -0.137134 0.441164 -0.107484
v -0.089022 0.456089 -0.110133
v -0.044209 0.461984 -0.116568
v 0.012531 0.463656 -0.119395
v 0.059598 0.461692 -0.114022
v 0.104256 0.451741 -0.107782
v 0.161819 0.430067 -0.095913
v 0.178585 0.428848 -0.091727
v -0.036167 0.472656 -0.090734
v 0.007427 0.474545 -0.091451
v 0.051050 0.472735 -0.090101
v -0.119520 -0.473175 -0.073703
v -0.098048 -0.473363 -0.073629
v -0.052269 -0.470949 -0.071904
v 0.012719 -0.468603 -0.039084
v 0.113553 -0.454248 -0.064875
v 0.140693 -0.472339 -0.046588
v -0.212354 -0.420023 -0.057481
v -0.200077 -0.414203 -0.057962
v -0.119204 -0.420024 -0.074013
v -0.101854 -0.418287 -0.069687
v -0.047925 -0.416737 -0.070035
v 0.017491 -0.415073 -0.044868
v 0.075804 -0.402667 -0.069303
v 0.097457 -0.419164 -0.054254
v -0.210335 -0.380380 -0.055035
v -0.194961 -0.366282 -0.053963
v -0.115310 -0.370977 -0.072769
v -0.098408 -0.366295 -0.067572
v -0.044373 -0.363791 -0.072152
v 0.013627 -0.362655 -0.048638
v 0.067066 -0.367525 -0.058965
v 0.083595 -0.375461 -0.046344
v -0.186395 -0.324143 -0.048004
v -0.095398 -0.322334 -0.062715
v -0.044190 -0.318883 -0.072345
v 0.003475 -0.319883 -0.053426
v 0.058274 -0.316069 -0.054889
v -0.289441 -0.279642 -0.059917
v -0.173200 -0.278030 -0.043455
v -0.154732 -0.264675 -0.038802
v -0.088172 -0.274294 -0.053288
v -0.034782 -0.273070 -0.066755
v -0.003407 -0.277067 -0.060581
v 0.050973 -0.279310 -0.060056
v -0.265520 -0.239730 -0.063177
v -0.249244 -0.219873 -0.075275
v -0.164070 -0.243612 -0.036341
v -0.151581 -0.233269 -0.043709
v -0.084709 -0.227239 -0.059026
v -0.033881 -0.225314 -0.063593
v -0.008836 -0.226028 -0.060326
v 0.047811 -0.225969 -0.058733
v 0.120174 -0.204907 -0.041342
v 0.150335 -0.207290 -0.047278
v 0.194258 -0.206405 -0.050357
v -0.232821 -0.179905 -0.067992
v -0.133693 -0.174495 -0.073425
v -0.080531 -0.174729 -0.054891
v -0.034060 -0.176102 -0.064793
v -0.005937 -0.183939 -0.059373
v 0.054525 -0.186596 -0.061816
v 0.100090 -0.187381 -0.072897
v 0.148827 -0.194906 -0.073001
v 0.207438 -0.188348 -0.062238
v 0.230785 -0.175185 -0.044764
v -0.219632 -0.128720 -0.054324
v -0.207191 -0.107377 -0.079438
v -0.125594 -0.124730 -0.064689
v -0.094298 -0.139743 -0.059596
v -0.060133 -0.150840 -0.081794
v 0.212882 -0.133197 -0.066740
v 0.229530 -0.125134 -0.044112
v -0.217618 -0.082513 -0.057577
v -0.181357 -0.078593 -0.060886
v -0.151477 -0.097643 -0.060792
v 0.213870 -0.085117 -0.071312
v 0.237024 -0.080828 -0.050080
v -0.218796 -0.031619 -0.056828
v -0.202973 -0.045053 -0.066130
v 0.218904 -0.031131 -0.073886
v 0.236349 -0.027810 -0.047998
v -0.240072 0.015711 -0.059750
v 0.220417 0.014534 -0.072687
v 0.242364 0.010724 -0.046649
v -0.261030 0.065758 -0.054227
v -0.250643 0.048632 -0.067197
v 0.207854 0.072346 -0.062876
v 0.231409 0.055341 -0.042714
v -0.276791 0.123134 -0.059914
v 0.202876 0.105292 -0.064567
v 0.239116 0.126240 -0.051116
v -0.285200 0.160718 -0.058310
v 0.260793 0.154357 -0.060804
v 0.271545 0.149170 -0.035946
v -0.286319 0.209347 -0.059560
v 0.260182 0.197359 -0.065324
v -0.281921 0.256493 -0.058845
v 0.255960 0.245011 -0.063970
v -0.271403 0.302251 -0.059523
v 0.249384 0.300633 -0.053314
v -0.259603 0.340862 -0.050683
v -0.247466 0.360664 -0.058254
v 0.239249 0.341899 -0.059928
v -0.224439 0.394190 -0.059528
v -0.203968 0.414635 -0.064981
v 0.199993 0.401744 -0.056860
v 0.227042 0.388969 -0.047424
v -0.179219 0.435408 -0.059407
v -0.139074 0.456621 -0.056514
v -0.104055 0.464966 -0.073583
v 0.111860 0.466067 -0.062994
v 0.165981 0.440651 -0.061196
v 0.179085 0.435454 -0.061151
v -0.082688 0.474096 -0.054954
v -0.043359 0.479531 -0.060674
v 0.003338 0.482666 -0.058873
v 0.053901 0.480110 -0.059799
v 0.093551 0.474030 -0.053692
v -0.168396 -0.445648 0.008831
v -0.149089 -0.444694 0.005354
v -0.019380 -0.479472 -0.022188
v 0.000867 -0.469634 -0.021258
v 0.121055 -0.450878 -0.013683
v 0.148106 -0.475358 -0.011174
v -0.166568 -0.434705 0.006762
v -0.133279 -0.416608 -0.003114
v -0.108407 -0.400596 -0.016020
v -0.016689 -0.439453 -0.017042
v 0.003076 -0.418342 -0.017734
v 0.098976 -0.410767 -0.007896
v -0.118421 -0.378789 -0.014052
v -0.103152 -0.368225 -0.013416
v -0.002110 -0.366300 -0.015837
v 0.077293 -0.377662 -0.033025
v 0.087669 -0.388093 -0.029909
v -0.180863 -0.308092 -0.030893
v -0.096951 -0.321086 -0.010517
v -0.018988 -0.315352 -0.026248
v -0.001481 -0.327594 -0.014117
v 0.072546 -0.324401 -0.009161
v -0.285032 -0.271770 -0.010839
v -0.173658 -0.275170 -0.025671
v -0.153007 -0.264771 -0.024634
v -0.092289 -0.272605 -0.012072
v -0.022898 -0.278655 -0.028630
v -0.005278 -0.279660 -0.023904
v 0.067681 -0.269772 -0.011380
v -0.275533 -0.248601 -0.032257
v -0.164986 -0.236918 -0.024768
v -0.144451 -0.220200 -0.012001
v -0.088988 -0.226033 -0.012186
v -0.037333 -0.225153 -0.031324
v -0.012094 -0.240574 -0.030753
v 0.065844 -0.223663 -0.011377
v 0.107726 -0.206585 -0.016929
v 0.153657 -0.214361 -0.006495
v 0.201442 -0.215537 -0.011030
v 0.226654 -0.205207 -0.010317
v -0.134610 -0.178696 -0.006831
v -0.084266 -0.173080 -0.007771
v -0.052518 -0.172493 -0.016078
v 0.010990 -0.189839 -0.009581
v 0.059066 -0.198867 -0.016946
v 0.239006 -0.174137 -0.012772
v -0.222336 -0.108986 -0.034149
v -0.127884 -0.130930 -0.009320
v -0.099793 -0.142432 -0.009790
v 0.239419 -0.125769 -0.012910
v -0.220802 -0.085414 -0.011629
v -0.176891 -0.080822 -0.009855
v -0.155871 -0.100944 -0.010209
v 0.254948 -0.080841 -0.010990
v -0.222334 -0.030981 -0.016939
v -0.204325 -0.050742 -0.020624
v 0.257402 -0.028925 -0.009144
v 0.282680 -0.015464 -0.001025
v -0.245686 0.011151 -0.011527
v 0.255341 -0.000315 -0.022640
v 0.293395 0.008602 -0.009871
v -0.265380 0.061607 -0.012286
v 0.253364 0.070713 -0.021574
v 0.280081 0.051257 -0.006634
v -0.284576 0.124418 -0.014467
v 0.248109 0.113163 -0.016173
v -0.292314 0.160468 -0.010992
v 0.265212 0.152425 -0.010449
v 0.272386 0.157016 -0.025122
v -0.293817 0.207314 -0.011424
v 0.269726 0.208899 -0.009525
v 0.271776 0.189466 -0.002324
v -0.288764 0.256849 -0.011180
v 0.264891 0.249020 -0.014321
v -0.277804 0.303958 -0.013393
v 0.254221 0.307505 -0.012330
v -0.263570 0.342739 -0.009903
v -0.251053 0.367113 -0.013107
v 0.248095 0.342924 -0.009851
v -0.229889 0.396429 -0.009470
v -0.204937 0.422401 -0.015574
v 0.200270 0.410588 -0.012012
v 0.228845 0.393550 -0.013111
v -0.182746 0.438729 -0.013577
v -0.138305 0.462014 -0.006300
v -0.111984 0.470306 -0.030951
v 0.123074 0.470337 0.004027
v 0.165955 0.443882 -0.004171
v 0.180389 0.432954 -0.003641
v -0.115059 0.470734 -0.000808
v -0.088374 0.477137 -0.009276
v -0.041443 0.484991 -0.012901
v 0.011467 0.488556 -0.008362
v 0.054508 0.485992 -0.012161
v 0.100023 0.477200 -0.008807
v -0.183417 -0.450882 0.031009
v -0.155430 -0.446637 0.024267
v -0.020242 -0.477608 0.024304
v 0.005239 -0.469287 0.028788
v 0.119496 -0.455718 0.046154
v 0.145562 -0.476269 0.032691
v -0.212919 -0.418079 0.054997
v -0.188346 -0.425300 0.040001
v -0.144817 -0.424133 0.023934
v -0.108056 -0.394841 0.019872
v 0.010073 -0.415948 0.033339
v 0.077972 -0.395264 0.051201
v 0.100233 -0.414437 0.031151
v -0.210370 -0.378662 0.054210
v -0.192948 -0.365543 0.048341
v -0.119136 -0.370276 0.023953
v -0.102465 -0.365279 0.035168
v 0.009996 -0.368119 0.039839
v 0.073228 -0.363154 0.034388
v 0.084667 -0.374495 0.029480
v -0.185212 -0.320915 0.046266
v -0.112701 -0.335480 0.020844
v -0.096807 -0.320063 0.037555
v -0.018778 -0.315688 0.026619
v 0.002411 -0.324239 0.039497
v 0.065060 -0.318313 0.039447
v -0.287118 -0.275018 0.037004
v -0.173149 -0.276634 0.034628
v -0.154691 -0.267799 0.032139
v -0.089321 -0.270134 0.037108
v -0.023082 -0.271921 0.036490
v -0.005998 -0.274496 0.042604
v 0.061661 -0.274981 0.037751
v -0.271959 -0.246781 0.046720
v -0.164568 -0.237491 0.025737
v -0.142798 -0.220768 0.025632
v -0.084225 -0.224809 0.030340
v -0.033002 -0.221781 0.041762
v -0.011105 -0.226401 0.045021
v 0.056258 -0.227245 0.044319
v 0.115755 -0.206423 0.031500
v 0.148409 -0.208017 0.044588
v 0.198431 -0.209260 0.041991
v 0.225771 -0.204359 0.025374
v -0.225811 -0.159681 0.057960
v -0.136004 -0.182495 0.023141
v -0.081205 -0.176867 0.040364
v -0.042721 -0.176018 0.040983
v -0.002270 -0.186852 0.041448
v 0.061879 -0.193841 0.043800
v 0.097412 -0.196396 0.052895
v 0.213073 -0.192040 0.057037
v 0.233377 -0.175061 0.038424
v -0.220471 -0.127041 0.046156
v -0.125367 -0.128527 0.035683
v -0.094397 -0.143472 0.038185
v 0.220193 -0.134889 0.056623
v 0.234775 -0.124730 0.032689
v -0.220010 -0.087102 0.030825
v -0.177741 -0.077281 0.040702
v -0.154904 -0.099051 0.038407
v 0.221086 -0.084440 0.057748
v 0.244447 -0.082340 0.036568
v -0.222022 -0.030576 0.038124
v -0.203622 -0.048590 0.042681
v 0.222366 -0.011812 0.059498
v 0.247265 -0.026118 0.030018
v 0.278235 -0.010808 0.015022
v -0.243401 0.012325 0.038780
v 0.222565 -0.006040 0.059895
v 0.248374 0.005863 0.034128
v 0.285387 0.005848 0.021649
v -0.262257 0.060194 0.037226
v -0.252197 0.042236 0.053417
v 0.210958 0.075061 0.051674
v 0.239925 0.060514 0.036571
v 0.276855 0.049999 0.016940
v -0.281852 0.123478 0.041962
v 0.197451 0.098657 0.051441
v 0.244251 0.116568 0.030862
v -0.289780 0.159447 0.037282
v 0.265930 0.151918 0.030410
v 0.272280 0.158518 0.027237
v -0.291939 0.208268 0.033271
v 0.264298 0.197553 0.049589
v 0.271606 0.196910 0.016529
v -0.287159 0.252164 0.037842
v 0.259307 0.245852 0.050600
v -0.275619 0.302553 0.038455
v 0.252131 0.302163 0.039205
v -0.261383 0.342783 0.034941
v -0.250249 0.363512 0.039352
v 0.244226 0.346701 0.038904
v -0.229842 0.393372 0.037985
v -0.204890 0.419632 0.043451
v 0.200567 0.407511 0.038207
v 0.228092 0.390836 0.034846
v -0.181697 0.437548 0.036785
v -0.137744 0.460192 0.037121
v -0.108498 0.469920 0.039945
v 0.123913 0.457311 0.049455
v 0.154079 0.444216 0.040303
v 0.182928 0.433763 0.033879
v -0.089719 0.474782 0.039671
v -0.043872 0.482551 0.040248
v 0.008199 0.486152 0.037846
v 0.058289 0.483438 0.038334
v 0.099587 0.475277 0.036345
v -0.118873 -0.472230 0.078040
v -0.099789 -0.469056 0.077625
v -0.052594 -0.471403 0.075183
v 0.106054 -0.448233 0.072434
v -0.211691 -0.423294 0.064776
v -0.201314 -0.417491 0.065477
v -0.117655 -0.417161 0.077973
v -0.102687 -0.417005 0.076077
v -0.047023 -0.418556 0.075350
v 0.073050 -0.409694 0.096658
v 0.092353 -0.428866 0.087299
v -0.209467 -0.387451 0.064150
v -0.198016 -0.371285 0.065131
v -0.115366 -0.374163 0.073906
v -0.097704 -0.367239 0.075549
v -0.042241 -0.370953 0.078318
v 0.011880 -0.353363 0.063001
v 0.062394 -0.375309 0.082187
v 0.081161 -0.391266 0.072591
v -0.193478 -0.340721 0.062557
v -0.097341 -0.322782 0.074193
v -0.043596 -0.322205 0.079217
v 0.011946 -0.315608 0.076982
v 0.044741 -0.321736 0.082478
v -0.289791 -0.280398 0.085589
v -0.166464 -0.255511 0.105824
v -0.154373 -0.251571 0.104859
v -0.093572 -0.271332 0.090649
v -0.042731 -0.273621 0.077600
v 0.008493 -0.277768 0.088890
v 0.041694 -0.279952 0.079346
v -0.263585 -0.237395 0.073064
v -0.248278 -0.217766 0.082083
v -0.164915 -0.228934 0.101876
v -0.145070 -0.217607 0.094284
v -0.087851 -0.224790 0.080397
v -0.040248 -0.226102 0.081626
v 0.005618 -0.227708 0.090363
v 0.041593 -0.217653 0.071312
v 0.156578 -0.201790 0.063171
v 0.187683 -0.202606 0.061813
v -0.231879 -0.183165 0.080381
v -0.137168 -0.181541 0.085941
v -0.078900 -0.181096 0.079892
v -0.037645 -0.177991 0.084157
v 0.015981 -0.179016 0.094850
v 0.048786 -0.177448 0.081780
v 0.103224 -0.183666 0.080930
v 0.151772 -0.171388 0.096864
v 0.194696 -0.177198 0.077356
v -0.217675 -0.133283 0.081801
v -0.202583 -0.122503 0.098120
v -0.126068 -0.127248 0.076266
v -0.087915 -0.138429 0.079404
v -0.050018 -0.148737 0.098256
v 0.170938 -0.139436 0.105302
v 0.198453 -0.128870 0.086493
v -0.214959 -0.082206 0.076222
v -0.191745 -0.078885 0.091948
v -0.148031 -0.090767 0.090154
v 0.209605 -0.082862 0.081925
v 0.228480 -0.073611 0.065157
v -0.215488 -0.032151 0.075168
v -0.199534 -0.037864 0.093482
v 0.210003 -0.032923 0.088181
v 0.225856 -0.042131 0.065072
v -0.228997 0.013917 0.087961
v 0.215677 0.016283 0.087543
v 0.224662 0.019300 0.067583
v -0.259582 0.075268 0.072014
v -0.246519 0.055289 0.084628
v 0.206609 0.067174 0.084939
v 0.224180 0.040972 0.064315
v -0.268727 0.124738 0.085967
v -0.254923 0.111964 0.103911
v 0.206173 0.110374 0.086681
v 0.227503 0.129595 0.073376
v -0.277559 0.162585 0.082817
v 0.221710 0.135422 0.100157
v 0.247035 0.154928 0.090442
v -0.277707 0.207597 0.085606
v 0.255836 0.200276 0.077258
v -0.273201 0.252456 0.085886
v 0.249245 0.248048 0.078892
v -0.264632 0.301896 0.080275
v -0.252212 0.313011 0.100815
v 0.222084 0.305496 0.107662
v 0.233648 0.300440 0.090277
v -0.257965 0.333473 0.070791
v -0.242887 0.351885 0.084080
v 0.213739 0.354187 0.102693
v 0.229061 0.344834 0.087826
v -0.219602 0.390093 0.080827
v -0.197236 0.410472 0.088574
v 0.159354 0.410490 0.098480
v 0.187287 0.399562 0.081775
v 0.223953 0.382843 0.062424
v -0.174376 0.431919 0.081123
v -0.137218 0.449897 0.084149
v -0.091478 0.463686 0.088046
v -0.044241 0.468323 0.100737
v 0.008387 0.469254 0.106573
v 0.061156 0.467002 0.102625
v 0.116174 0.442995 0.091027
v 0.149162 0.433237 0.079755
v 0.178760 0.430753 0.081502
v -0.081051 0.472740 0.064781
v -0.038545 0.476394 0.076636
v 0.008766 0.477025 0.083515
v 0.053138 0.476379 0.077706
v 0.088925 0.472180 0.069727
v -0.214503 -0.396635 0.153764
v -0.202636 -0.398039 0.154120
v -0.122973 -0.401347 0.155384
v -0.111244 -0.398041 0.156815
v 0.060227 -0.405470 0.128581
v 0.081688 -0.416351 0.110107
v -0.212037 -0.368238 0.153498
v -0.199527 -0.366227 0.150743
v -0.120451 -0.369818 0.148674
v -0.102721 -0.364264 0.144625
v 0.023464 -0.354703 0.133168
v 0.044928 -0.378519 0.132165
v -0.209877 -0.342453 0.155755
v -0.188907 -0.318081 0.142934
v -0.114928 -0.332670 0.139642
v -0.099120 -0.320973 0.132744
v -0.024849 -0.300766 0.153450
v 0.005528 -0.322606 0.136006
v -0.282545 -0.275901 0.134289
v -0.256332 -0.251724 0.147018
v -0.177528 -0.277452 0.130401
v -0.155811 -0.262334 0.121854
v -0.096412 -0.282379 0.117453
v -0.038605 -0.263591 0.143102
v -0.001232 -0.283452 0.118695
v -0.260965 -0.239191 0.132317
v -0.232109 -0.217260 0.139094
v -0.177986 -0.222139 0.136875
v -0.151902 -0.222119 0.133728
v -0.070053 -0.218318 0.144134
v -0.045195 -0.231931 0.140174
v 0.000758 -0.218017 0.117633
v -0.219926 -0.184390 0.125368
v -0.188012 -0.178078 0.136764
v -0.145457 -0.179016 0.141574
v -0.081442 -0.174642 0.145520
v -0.039670 -0.177835 0.139495
v 0.005714 -0.174975 0.120441
v 0.043166 -0.158791 0.115648
v 0.100323 -0.160081 0.119340
v 0.137948 -0.157825 0.114465
v -0.210900 -0.145069 0.115463
v -0.184305 -0.129292 0.124061
v -0.132632 -0.122784 0.140453
v -0.089805 -0.127844 0.141757
v -0.032626 -0.121010 0.141527
v 0.002592 -0.137136 0.134054
v 0.051778 -0.137583 0.145136
v 0.103451 -0.132471 0.142045
v 0.156303 -0.123359 0.120526
v 0.177425 -0.112071 0.113330
v -0.178453 -0.082038 0.124128
v -0.136192 -0.074968 0.141431
v -0.090306 -0.088508 0.149894
v -0.040090 -0.092946 0.151654
v -0.012611 -0.101828 0.152817
v 0.118332 -0.083128 0.154317
v 0.162795 -0.081547 0.125683
v 0.179967 -0.080850 0.117569
v -0.181712 -0.039741 0.123903
v -0.155142 -0.051988 0.140433
v 0.165801 -0.030742 0.134408
v 0.181718 -0.037314 0.121301
v -0.214320 0.026000 0.120808
v -0.191681 0.017626 0.141872
v 0.159832 -0.000430 0.152370
v 0.191900 0.017982 0.131167
v -0.225859 0.065126 0.126151
v -0.200886 0.061783 0.151637
v 0.171310 0.081047 0.156296
v 0.192077 0.065856 0.131014
v -0.258191 0.130008 0.113115
v -0.237919 0.123807 0.134589
v 0.173011 0.105574 0.146785
v 0.189773 0.107365 0.125029
v -0.260607 0.161534 0.117328
v -0.242815 0.160110 0.141136
v 0.209713 0.154802 0.144294
v 0.234324 0.160540 0.122647
v -0.260574 0.207262 0.119860
v -0.243634 0.206569 0.142676
v 0.204987 0.207941 0.142561
v 0.234763 0.198375 0.118044
v -0.257874 0.257474 0.115004
v -0.240662 0.255965 0.138875
v 0.199755 0.258909 0.141301
v 0.227229 0.251994 0.115204
v -0.233142 0.304127 0.133612
v -0.207336 0.317902 0.157227
v 0.164362 0.312622 0.154312
v 0.197985 0.301850 0.132235
v -0.221148 0.346042 0.126618
v -0.196634 0.356699 0.147292
v 0.124470 0.360839 0.153447
v 0.149207 0.356308 0.146472
v 0.191357 0.366037 0.128346
v -0.209183 0.380707 0.114120
v -0.179645 0.395434 0.133417
v -0.145665 0.410441 0.147501
v 0.113424 0.404486 0.143189
v 0.152950 0.393822 0.129331
v 0.185715 0.388076 0.135170
v -0.131352 0.432056 0.130595
v -0.089598 0.443443 0.136429
v -0.042983 0.452461 0.135940
v 0.002997 0.453433 0.138840
v 0.058151 0.447915 0.135215
v 0.105798 0.429652 0.124430
v 0.141988 0.424715 0.115643
v -0.161976 -0.477194 0.182555
v -0.145927 -0.462888 0.181493
v -0.216072 -0.395645 0.166473
v -0.200985 -0.397030 0.166787
v -0.131535 -0.421055 0.175266
v -0.109800 -0.398905 0.167688
v -0.213135 -0.374626 0.164181
v -0.199952 -0.368746 0.164560
v -0.122299 -0.376155 0.167195
v -0.105293 -0.369416 0.164795
v 0.013657 -0.366218 0.184419
v 0.035584 -0.382732 0.163626
v -0.195885 -0.332226 0.161701
v -0.036839 -0.306542 0.182443
v -0.005684 -0.329520 0.178910
v -0.269442 -0.276221 0.182285
v -0.237234 -0.261560 0.190599
v -0.178691 -0.257630 0.187280
v -0.142823 -0.263797 0.187514
v -0.087419 -0.279627 0.189839
v -0.043112 -0.289020 0.175376
v -0.257467 -0.244898 0.163986
v -0.228304 -0.235933 0.170243
v -0.186660 -0.234131 0.170929
v -0.158134 -0.236908 0.169546
v -0.078964 -0.105682 0.159393
v -0.044753 -0.110855 0.157806
v 0.022666 -0.111743 0.160927
v 0.064683 -0.113388 0.165387
v 0.088570 -0.116684 0.157547
v -0.119031 -0.068956 0.161580
v -0.085498 -0.081207 0.164841
v -0.040585 -0.078121 0.162977
v 0.001102 -0.081495 0.168365
v 0.054625 -0.084785 0.174512
v 0.094756 -0.079731 0.167309
v -0.135526 -0.027584 0.167367
v -0.082883 -0.024210 0.187122
v -0.041201 -0.030184 0.181332
v 0.011505 -0.021498 0.185193
v 0.054605 -0.031178 0.183011
v 0.103949 -0.036038 0.170987
v 0.134283 -0.021957 0.159719
v -0.168436 0.024768 0.162721
v -0.132105 0.017088 0.183991
v -0.102765 0.000474 0.181973
v -0.036792 -0.003794 0.177334
v 0.023466 -0.006041 0.184939
v 0.056267 0.014372 0.190383
v 0.111487 0.022936 0.180092
v 0.141832 0.012705 0.166838
v -0.169976 0.068994 0.184060
v -0.148029 0.059813 0.188542
v 0.075146 0.052471 0.194959
v 0.092005 0.058724 0.193272
v 0.153784 0.062637 0.172772
v -0.214084 0.127326 0.162136
v -0.173546 0.118574 0.187746
v -0.156112 0.113940 0.194661
v 0.074291 0.118340 0.197254
v 0.102215 0.109914 0.194893
v 0.152041 0.111742 0.172816
v 0.179357 0.129204 0.162918
v -0.216598 0.160599 0.167086
v -0.171941 0.144635 0.193987
v -0.151766 0.149120 0.201013
v 0.061554 0.162978 0.201984
v 0.103351 0.159720 0.195486
v 0.155416 0.160128 0.179502
v 0.188554 0.153291 0.163194
v -0.219348 0.205327 0.166739
v -0.182795 0.207678 0.189810
v -0.148100 0.213352 0.203051
v 0.064317 0.217919 0.201781
v 0.093139 0.221191 0.197454
v 0.151118 0.203130 0.177298
v 0.181325 0.196943 0.161865
v -0.215370 0.252195 0.165497
v -0.186292 0.252860 0.184733
v -0.145374 0.258868 0.201571
v 0.063224 0.255539 0.192097
v 0.100857 0.256976 0.187390
v 0.137436 0.264283 0.177955
v 0.175939 0.243607 0.160644
v -0.215393 0.283630 0.159882
v -0.180997 0.306377 0.177309
v -0.138399 0.303963 0.197191
v -0.107040 0.317307 0.204026
v 0.067150 0.302379 0.195804
v 0.103298 0.301080 0.181586
v 0.137535 0.304398 0.168917
v -0.174638 0.346683 0.168415
v -0.138056 0.350417 0.184490
v -0.087526 0.355467 0.198189
v -0.043773 0.366348 0.201006
v 0.020284 0.365227 0.202532
v 0.064098 0.351945 0.190076
v 0.102683 0.350884 0.173645
v 0.147472 0.347612 0.164553
v 0.179173 0.369751 0.158071
v -0.163857 0.380783 0.158928
v -0.132947 0.393872 0.166900
v -0.091679 0.397808 0.179699
v -0.039144 0.398225 0.187913
v 0.010226 0.400062 0.187619
v 0.067902 0.388044 0.181371
v 0.098323 0.386396 0.168320
v 0.154615 0.384013 0.162081
v 0.182575 0.390426 0.163271
v -0.082303 0.428135 0.160806
v -0.038076 0.431234 0.166359
v 0.003656 0.430809 0.168132
v 0.050138 0.429071 0.160806
v -0.018109 -0.347056 0.212082
v -0.006349 -0.351823 0.208432
v -0.137116 -0.301631 0.231761
v -0.084634 -0.308373 0.227176
v -0.040923 -0.325522 0.219816
v -0.010412 -0.340723 0.212377
v -0.259026 -0.275204 0.207390
v -0.234604 -0.279422 0.217064
v -0.183837 -0.285792 0.225199
v -0.138418 -0.287242 0.224468
v -0.092900 -0.290989 0.218391
v -0.061714 -0.296143 0.210297
v -0.115845 -0.010942 0.213069
v -0.088929 -0.021149 0.218386
v -0.037902 -0.029739 0.229527
v 0.006537 -0.024659 0.216343
v 0.035874 -0.012617 0.212770
v -0.128509 0.008745 0.223986
v -0.095397 0.008050 0.237288
v -0.041787 0.020906 0.236669
v 0.001558 0.021298 0.239395
v 0.055193 0.012617 0.225365
v 0.080048 0.037800 0.230362
v -0.163622 0.070499 0.221215
v -0.146241 0.057245 0.230978
v -0.091299 0.057872 0.237286
v -0.039171 0.063223 0.234185
v 0.014180 0.059357 0.237806
v 0.062611 0.064084 0.243884
v 0.086225 0.070186 0.221369
v -0.163302 0.103299 0.227046
v -0.152711 0.101200 0.239677
v -0.094436 0.115583 0.242644
v -0.035455 0.107178 0.237909
v 0.017517 0.111904 0.242569
v 0.058935 0.106594 0.243917
v 0.087319 0.103870 0.223335
v -0.127429 0.170074 0.238543
v -0.090398 0.156616 0.249015
v -0.041370 0.152253 0.246463
v 0.001184 0.146876 0.248312
v 0.057209 0.166141 0.231542
v 0.080421 0.136666 0.226541
v -0.126410 0.191611 0.213763
v -0.095369 0.206035 0.223882
v -0.039075 0.217367 0.231937
v 0.004885 0.214777 0.222179
v 0.048422 0.198030 0.214003
v -0.122671 0.258079 0.206815
v -0.093030 0.251020 0.215114
v -0.035923 0.253982 0.220176
v 0.002898 0.250658 0.217119
v 0.050486 0.262847 0.209045
v -0.074613 0.291203 0.215614
v -0.054170 0.298287 0.217524
v 0.016291 0.300286 0.213687
v 0.055330 0.292440 0.209649
v -0.073743 0.334005 0.206706
v -0.029010 0.339009 0.213071
v 0.003371 0.352136 0.210755
v 0.038378 0.362714 0.207071
v 0.047291 0.374725 0.205536
v -0.117166 0.033933 0.259138
v -0.087365 0.016680 0.258685
v -0.040025 0.000822 0.257833
v 0.008978 0.015443 0.259535
v 0.038316 0.030939 0.260410
v -0.122841 0.064423 0.261846
v -0.109254 0.043986 0.260422
v 0.029842 0.040072 0.260467
v 0.045424 0.059263 0.262637
v -0.124820 0.113851 0.264680
v -0.108883 0.128035 0.267864
v 0.030148 0.132050 0.269356
v 0.051845 0.115013 0.263098
v -0.122838 0.154098 0.256848
v -0.091473 0.161236 0.266725
v -0.040719 0.170522 0.270476
v 0.011916 0.161888 0.267800
v 0.043493 0.158381 0.257654
v -0.081458 0.187704 0.259053
v -0.039728 0.199755 0.257782
v 0.000006 0.190584 0.259294
f 2 5 1
f 3 2 6
f 3 47 2
f 2 5 6
f 5 2 53
f 2 47 46
f 53 2 46
f 47 4 3
f 48 3 4
f 3 6 7
f 3 7 54
f 48 47 3
f 3 54 47
f 47 48 4
f 52 6 5
f 51 52 5
f 52 5 53
f 7 6 54
f 52 53 6
f 54 6 53
f 13 9 8
f 9 60 8
f 12 13 8
f 12 8 60
f 10 9 13
f 10 62 9
f 9 61 60
f 62 61 9
f 14 10 13
f 62 10 14
f 11 18 12
f 60 11 12
f 65 12 11
f 12 66 11
f 17 18 11
f 72 17 11
f 59 11 60
f 59 65 11
f 66 65 11
f 65 72 11
f 19 13 12
f 12 18 19
f 66 12 65
f 13 20 14
f 13 19 20
f 15 14 21
f 63 14 15
f 21 14 20
f 62 14 63
f 15 21 22
f 68 15 22
f 15 68 63
f 17 16 23
f 17 72 16
f 76 23 16
f 71 16 72
f 76 16 71
f 18 17 25
f 24 17 23
f 17 24 25
f 18 25 19
f 20 19 27
f 19 25 26
f 19 26 27
f 20 27 21
f 28 22 21
f 27 28 21
f 29 22 28
f 29 79 22
f 22 74 68
f 22 79 74
f 24 23 77
f 23 76 77
f 25 24 31
f 30 31 24
f 30 24 82
f 24 77 82
f 25 31 26
f 33 27 26
f 32 26 31
f 32 33 26
f 27 33 28
f 28 34 29
f 33 34 28
f 34 35 29
f 35 84 29
f 84 79 29
f 37 31 30
f 30 36 37
f 36 30 87
f 30 82 87
f 31 37 32
f 32 39 33
f 37 38 32
f 32 38 39
f 34 33 40
f 33 39 40
f 35 34 83
f 83 34 40
f 35 83 84
f 37 36 88
f 88 36 87
f 37 89 38
f 37 88 89
f 39 38 89
f 91 40 39
f 39 89 90
f 39 90 91
f 91 83 40
f 122 41 42
f 123 42 41
f 123 41 122
f 43 42 126
f 123 122 42
f 126 42 123
f 126 131 43
f 45 44 48
f 45 49 44
f 49 48 44
f 45 48 49
f 45 49 133
f 139 49 45
f 133 134 45
f 139 45 133
f 46 47 53
f 47 48 54
f 53 47 54
f 138 48 49
f 49 48 139
f 48 55 54
f 55 144 48
f 139 48 138
f 144 138 48
f 139 133 49
f 139 138 49
f 141 50 51
f 147 51 50
f 141 140 50
f 140 50 146
f 147 50 140
f 51 52 56
f 57 52 51
f 57 51 56
f 147 51 56
f 141 51 147
f 53 52 57
f 52 53 143
f 147 56 52
f 148 52 142
f 148 52 143
f 147 52 148
f 53 57 58
f 149 53 58
f 149 143 53
f 148 57 56
f 148 56 147
f 57 148 58
f 58 148 149
f 60 59 65
f 60 61 177
f 65 60 66
f 60 177 66
f 61 62 178
f 61 178 177
f 178 186 61
f 63 62 68
f 62 63 172
f 62 67 68
f 172 171 62
f 171 179 62
f 179 178 62
f 64 63 68
f 64 181 63
f 63 180 172
f 180 63 181
f 69 64 68
f 187 64 69
f 181 64 187
f 66 185 65
f 72 65 185
f 185 66 177
f 68 74 69
f 68 73 74
f 75 70 69
f 70 187 69
f 74 75 69
f 188 187 69
f 193 70 75
f 188 187 70
f 188 70 193
f 72 71 76
f 71 72 77
f 192 71 72
f 76 71 77
f 191 76 71
f 191 71 192
f 72 76 77
f 192 72 185
f 75 74 79
f 75 79 80
f 75 80 193
f 76 82 77
f 76 81 82
f 76 196 81
f 191 196 76
f 78 79 83
f 79 78 84
f 84 78 83
f 79 85 80
f 79 84 83
f 85 79 84
f 85 201 80
f 193 80 197
f 201 197 80
f 86 82 81
f 81 200 86
f 196 200 81
f 86 87 82
f 84 83 91
f 85 84 92
f 84 91 92
f 92 93 85
f 93 206 85
f 85 206 201
f 86 95 87
f 94 95 86
f 86 209 94
f 86 200 205
f 209 86 205
f 88 87 95
f 89 88 97
f 96 88 95
f 96 97 88
f 97 90 89
f 90 99 91
f 97 98 90
f 90 98 99
f 91 99 92
f 93 92 100
f 100 92 99
f 101 93 100
f 93 101 211
f 211 206 93
f 94 103 95
f 102 103 94
f 214 102 94
f 94 209 214
f 95 104 96
f 95 103 104
f 96 104 97
f 105 98 97
f 105 97 104
f 106 99 98
f 105 106 98
f 100 99 108
f 107 99 106
f 108 99 107
f 210 101 100
f 108 215 100
f 215 210 100
f 210 216 101
f 211 101 216
f 103 102 109
f 102 219 109
f 102 214 219
f 103 110 104
f 110 103 109
f 105 104 112
f 110 111 104
f 112 104 111
f 105 113 106
f 105 112 113
f 113 107 106
f 108 107 115
f 114 107 113
f 115 107 114
f 221 108 115
f 108 221 215
f 110 109 219
f 117 111 110
f 116 117 110
f 110 220 116
f 110 219 220
f 117 112 111
f 112 118 113
f 117 118 112
f 119 114 113
f 120 114 113
f 113 118 119
f 120 115 114
f 120 114 119
f 121 120 114
f 230 115 120
f 221 115 230
f 116 225 117
f 220 225 116
f 118 117 227
f 117 225 226
f 227 117 226
f 118 227 119
f 229 120 119
f 228 119 227
f 229 119 228
f 120 229 230
f 121 231 230
f 124 125 130
f 130 129 124
f 127 132 126
f 131 126 132
f 128 246 134
f 134 252 128
f 252 246 128
f 130 129 135
f 136 132 131
f 132 137 131
f 137 136 131
f 132 136 137
f 255 137 132
f 132 255 249
f 133 134 252
f 251 133 252
f 134 246 252
f 135 142 260
f 253 135 260
f 255 136 137
f 254 255 136
f 137 262 255
f 144 138 139
f 144 145 139
f 264 144 139
f 139 145 264
f 139 257 264
f 147 140 141
f 147 140 146
f 146 140 266
f 266 140 147
f 259 140 266
f 261 142 143
f 261 260 142
f 260 268 142
f 269 261 142
f 269 142 268
f 149 148 143
f 144 264 145
f 151 144 150
f 151 144 263
f 263 144 264
f 147 146 267
f 266 267 146
f 148 153 147
f 274 153 147
f 267 266 147
f 147 267 274
f 149 148 155
f 148 154 153
f 148 154 155
f 150 151 156
f 150 157 151
f 156 157 150
f 152 151 157
f 152 272 151
f 151 157 156
f 151 271 157
f 263 271 151
f 272 263 151
f 158 152 157
f 158 272 152
f 153 154 274
f 153 275 154
f 153 274 275
f 159 155 154
f 275 154 155
f 159 154 285
f 154 275 274
f 275 285 154
f 159 160 155
f 155 160 285
f 155 285 275
f 157 161 156
f 162 157 156
f 161 162 156
f 157 163 158
f 279 158 157
f 157 162 161
f 157 162 163
f 278 157 271
f 278 279 157
f 279 163 158
f 289 158 163
f 158 279 272
f 279 158 289
f 159 168 160
f 167 168 159
f 295 167 159
f 285 295 159
f 168 161 160
f 169 160 161
f 168 160 169
f 168 286 160
f 160 286 285
f 162 161 169
f 170 161 162
f 162 288 161
f 169 161 168
f 161 170 169
f 287 169 161
f 287 161 288
f 170 163 162
f 288 162 163
f 170 162 169
f 172 164 163
f 164 289 163
f 171 163 170
f 172 163 171
f 289 163 279
f 289 288 163
f 165 164 173
f 164 165 280
f 173 164 172
f 280 290 164
f 290 289 164
f 166 165 173
f 166 292 165
f 165 281 280
f 291 281 165
f 291 165 292
f 174 166 173
f 292 166 174
f 167 175 168
f 167 295 175
f 169 168 176
f 168 169 296
f 168 175 176
f 295 168 175
f 175 168 300
f 176 168 296
f 168 295 286
f 295 296 168
f 168 296 300
f 169 177 170
f 169 176 177
f 169 287 296
f 170 178 171
f 178 170 177
f 171 178 179
f 172 181 173
f 172 180 181
f 182 174 173
f 181 182 173
f 301 174 182
f 292 174 297
f 301 297 174
f 185 176 175
f 185 175 184
f 300 184 175
f 295 175 300
f 185 177 176
f 182 181 187
f 182 187 188
f 188 189 182
f 182 189 302
f 301 182 302
f 183 302 189
f 189 305 183
f 183 305 302
f 185 184 191
f 184 190 191
f 303 190 184
f 184 300 304
f 303 184 304
f 185 191 192
f 189 188 193
f 189 193 194
f 194 308 189
f 305 189 308
f 191 190 195
f 307 195 190
f 303 307 190
f 196 191 195
f 193 197 194
f 194 197 198
f 308 194 198
f 195 200 196
f 195 199 200
f 195 310 199
f 195 307 310
f 195 310 309
f 202 198 197
f 197 201 202
f 202 315 198
f 312 308 198
f 312 198 311
f 198 315 312
f 199 205 200
f 199 204 205
f 314 204 199
f 310 314 199
f 201 207 202
f 206 207 201
f 207 203 202
f 203 316 202
f 202 316 315
f 203 207 319
f 203 319 316
f 204 209 205
f 208 209 204
f 208 204 321
f 204 314 313
f 313 317 204
f 204 317 321
f 206 212 207
f 212 206 211
f 207 212 318
f 207 318 319
f 214 209 208
f 214 208 213
f 208 321 213
f 215 216 210
f 216 212 211
f 216 217 212
f 326 212 217
f 212 322 318
f 212 326 322
f 214 213 218
f 218 213 325
f 321 325 213
f 214 218 219
f 216 215 222
f 215 221 222
f 216 223 217
f 216 222 223
f 326 217 223
f 328 219 218
f 218 325 328
f 224 220 219
f 329 224 219
f 329 219 328
f 224 225 220
f 221 231 222
f 230 231 221
f 223 222 231
f 223 232 222
f 222 331 223
f 222 232 231
f 222 231 330
f 222 330 331
f 232 331 223
f 337 232 223
f 331 326 223
f 337 223 331
f 225 224 334
f 329 334 224
f 226 225 234
f 234 225 233
f 225 335 233
f 225 334 335
f 226 234 227
f 236 228 227
f 234 235 227
f 236 227 235
f 236 229 228
f 229 237 230
f 237 229 236
f 336 231 230
f 237 238 230
f 238 336 230
f 232 337 231
f 330 231 337
f 336 337 231
f 331 232 337
f 233 340 234
f 335 339 233
f 233 339 340
f 235 234 340
f 235 341 236
f 235 340 341
f 237 236 343
f 236 341 342
f 342 343 236
f 237 344 238
f 237 343 344
f 345 336 238
f 238 344 345
f 244 240 239
f 350 239 240
f 243 244 239
f 243 239 358
f 350 358 239
f 240 244 359
f 350 240 351
f 351 240 359
f 245 352 241
f 247 242 354
f 248 244 243
f 366 248 243
f 358 366 243
f 248 249 244
f 367 244 249
f 367 359 244
f 250 360 245
f 245 368 250
f 360 352 245
f 360 368 245
f 246 252 247
f 246 247 363
f 246 370 252
f 363 362 246
f 246 362 370
f 247 252 371
f 354 363 247
f 247 371 363
f 248 366 249
f 366 367 249
f 373 249 367
f 256 368 250
f 256 250 374
f 368 360 250
f 368 374 250
f 252 258 370
f 252 370 371
f 263 374 256
f 256 374 368
f 257 264 258
f 257 258 376
f 257 376 264
f 265 258 264
f 265 376 258
f 258 376 370
f 267 266 259
f 266 377 259
f 266 259 384
f 377 384 259
f 269 260 261
f 269 268 260
f 388 270 262
f 262 388 380
f 271 263 264
f 272 264 263
f 381 271 263
f 271 382 263
f 381 374 263
f 263 382 381
f 265 272 264
f 383 265 264
f 272 264 271
f 271 264 382
f 382 264 272
f 376 383 264
f 383 376 265
f 267 384 266
f 385 267 266
f 266 384 377
f 385 266 384
f 385 267 274
f 395 274 267
f 385 384 267
f 385 395 267
f 276 396 269
f 396 387 269
f 277 271 270
f 389 270 271
f 270 388 277
f 389 388 270
f 270 388 397
f 272 271 278
f 272 279 271
f 271 277 278
f 278 271 279
f 278 271 389
f 381 389 271
f 272 278 279
f 390 279 272
f 390 382 272
f 391 390 272
f 279 280 273
f 273 390 279
f 273 280 391
f 391 390 273
f 275 274 285
f 284 285 274
f 284 274 395
f 405 274 284
f 385 274 395
f 395 274 405
f 396 276 286
f 286 276 407
f 396 407 276
f 287 278 277
f 397 287 277
f 397 277 388
f 279 278 288
f 278 390 279
f 399 278 279
f 288 278 287
f 278 288 398
f 278 409 288
f 398 278 389
f 399 390 278
f 398 399 278
f 398 409 278
f 280 279 289
f 399 279 280
f 400 280 279
f 289 279 288
f 279 390 400
f 401 280 281
f 280 289 290
f 400 391 280
f 400 399 280
f 280 401 400
f 292 282 281
f 281 282 402
f 292 281 291
f 281 402 401
f 282 292 283
f 283 403 282
f 403 402 282
f 292 293 283
f 293 410 283
f 403 283 410
f 284 295 285
f 284 285 405
f 284 294 295
f 284 405 294
f 405 284 395
f 295 285 286
f 285 295 413
f 405 285 406
f 413 406 285
f 286 296 287
f 286 287 407
f 286 407 296
f 286 407 396
f 398 288 287
f 287 288 409
f 397 398 287
f 287 408 407
f 409 408 287
f 293 292 297
f 297 298 293
f 293 298 410
f 300 295 294
f 300 294 299
f 299 294 412
f 405 412 294
f 296 295 300
f 295 296 413
f 295 413 300
f 407 414 296
f 414 413 296
f 297 301 298
f 301 302 298
f 298 302 419
f 298 415 410
f 419 415 298
f 299 303 300
f 299 417 303
f 417 299 412
f 300 303 304
f 300 413 418
f 417 300 418
f 305 422 302
f 302 422 419
f 425 307 303
f 417 421 303
f 425 303 421
f 422 305 308
f 422 423 305
f 306 309 307
f 424 306 307
f 428 309 306
f 424 428 306
f 307 309 310
f 425 424 307
f 308 312 429
f 308 426 422
f 426 308 429
f 310 309 313
f 431 313 309
f 431 309 428
f 310 313 314
f 315 316 312
f 312 316 430
f 429 312 430
f 313 434 317
f 434 313 431
f 316 319 435
f 316 432 430
f 432 316 435
f 317 320 321
f 317 434 320
f 323 319 318
f 322 323 318
f 323 437 319
f 435 319 437
f 321 320 324
f 324 320 436
f 320 434 436
f 325 321 324
f 323 322 327
f 326 327 322
f 327 437 323
f 324 328 325
f 440 328 324
f 324 436 438
f 438 440 324
f 327 326 331
f 327 331 332
f 442 327 332
f 327 439 437
f 442 439 327
f 328 334 329
f 333 334 328
f 333 328 441
f 441 328 440
f 330 337 331
f 332 331 442
f 337 445 331
f 442 331 445
f 443 334 333
f 443 333 441
f 335 334 339
f 334 338 339
f 338 334 447
f 444 334 443
f 444 447 334
f 336 345 337
f 346 336 337
f 346 345 336
f 337 345 445
f 339 338 447
f 339 449 340
f 339 447 448
f 448 449 339
f 347 341 340
f 453 347 340
f 449 453 340
f 342 341 348
f 348 341 347
f 342 349 343
f 342 348 349
f 343 349 344
f 344 451 345
f 344 349 456
f 451 344 450
f 450 344 457
f 457 344 456
f 451 346 345
f 346 452 345
f 451 445 345
f 345 452 451
f 452 346 451
f 348 347 455
f 454 347 453
f 455 347 454
f 349 348 456
f 348 455 456
f 351 359 350
f 359 358 350
f 351 352 360
f 353 361 461
f 361 353 468
f 461 468 353
f 355 463 354
f 462 354 363
f 354 469 363
f 463 462 354
f 354 462 469
f 357 364 356
f 356 365 357
f 356 364 365
f 365 364 357
f 359 367 358
f 358 367 366
f 361 468 369
f 361 468 461
f 363 370 362
f 370 363 474
f 371 469 363
f 462 363 469
f 363 469 474
f 367 373 366
f 368 374 381
f 472 375 369
f 468 472 369
f 370 473 371
f 370 474 473
f 474 469 371
f 473 474 371
f 481 378 372
f 372 378 482
f 475 372 481
f 481 372 482
f 374 381 375
f 477 374 375
f 477 381 374
f 381 382 375
f 478 375 382
f 375 472 478
f 477 375 478
f 479 383 376
f 486 376 383
f 486 479 376
f 384 377 480
f 377 384 487
f 480 377 487
f 379 378 387
f 379 482 378
f 386 387 378
f 378 488 386
f 378 481 488
f 489 379 387
f 482 379 489
f 380 483 388
f 388 490 380
f 380 490 483
f 389 382 381
f 484 389 381
f 477 484 381
f 390 382 389
f 382 390 485
f 478 485 382
f 391 383 486
f 383 391 493
f 479 486 383
f 486 383 493
f 480 487 384
f 387 386 489
f 489 386 488
f 388 389 397
f 397 398 388
f 388 499 397
f 388 398 500
f 490 388 483
f 491 490 388
f 388 490 499
f 388 500 491
f 398 390 389
f 389 491 390
f 398 397 389
f 398 389 491
f 484 491 389
f 400 390 391
f 398 390 399
f 390 492 485
f 492 390 491
f 493 400 391
f 400 502 391
f 486 493 391
f 502 493 391
f 393 392 401
f 392 393 494
f 401 392 400
f 392 494 400
f 394 393 402
f 393 394 496
f 393 401 402
f 495 494 393
f 393 496 495
f 394 402 403
f 394 403 404
f 496 394 404
f 407 408 396
f 398 397 408
f 398 500 397
f 506 408 397
f 397 499 506
f 501 398 399
f 409 398 408
f 501 500 398
f 502 399 400
f 502 501 399
f 493 502 400
f 494 502 400
f 403 410 404
f 404 410 411
f 404 411 507
f 404 497 496
f 497 404 503
f 404 507 503
f 413 405 406
f 413 412 405
f 508 412 405
f 508 405 504
f 408 505 407
f 407 510 414
f 407 505 510
f 408 506 505
f 411 410 416
f 416 410 415
f 416 511 411
f 507 411 511
f 417 412 413
f 417 412 508
f 412 417 512
f 512 508 412
f 414 509 413
f 418 417 413
f 413 509 418
f 414 510 509
f 420 416 415
f 420 415 419
f 416 420 514
f 514 511 416
f 418 513 417
f 417 516 421
f 508 512 417
f 417 513 512
f 417 512 516
f 509 513 418
f 420 419 423
f 422 423 419
f 423 514 420
f 421 424 425
f 421 519 424
f 516 519 421
f 426 423 422
f 426 427 423
f 427 520 423
f 514 423 517
f 517 518 423
f 517 423 520
f 519 428 424
f 427 426 520
f 520 426 429
f 428 522 431
f 428 519 522
f 430 523 429
f 523 520 429
f 430 432 525
f 525 523 430
f 527 434 431
f 431 522 524
f 524 527 431
f 526 432 433
f 525 432 435
f 525 432 526
f 530 436 434
f 530 434 527
f 531 435 437
f 525 435 528
f 528 435 531
f 530 438 436
f 437 439 531
f 438 532 440
f 530 532 438
f 442 533 439
f 533 531 439
f 534 441 440
f 534 440 532
f 441 537 443
f 534 535 441
f 441 535 537
f 445 446 442
f 446 536 442
f 536 533 442
f 537 444 443
f 541 447 444
f 538 444 537
f 538 541 444
f 446 445 540
f 452 445 451
f 539 445 452
f 539 540 445
f 540 536 446
f 447 541 448
f 449 448 453
f 448 543 453
f 448 541 542
f 542 543 448
f 545 451 450
f 450 457 552
f 552 545 450
f 451 545 452
f 451 546 452
f 451 545 546
f 539 452 545
f 546 545 452
f 549 454 453
f 453 543 548
f 453 548 549
f 455 454 549
f 456 455 551
f 550 455 549
f 455 550 551
f 457 456 552
f 552 456 551
f 458 465 459
f 459 553 458
f 458 464 465
f 458 553 464
f 465 561 459
f 459 554 553
f 554 459 561
f 461 468 460
f 461 460 555
f 467 460 468
f 461 556 468
f 556 461 555
f 469 463 462
f 558 462 463
f 565 469 462
f 558 557 462
f 557 565 462
f 469 558 463
f 464 560 465
f 553 560 464
f 471 466 465
f 471 465 470
f 568 470 465
f 465 471 562
f 560 561 465
f 465 562 561
f 561 568 465
f 468 472 563
f 577 472 468
f 563 468 556
f 563 577 468
f 565 558 469
f 565 572 469
f 471 476 470
f 470 568 471
f 568 476 471
f 471 476 569
f 569 562 471
f 477 472 478
f 570 472 478
f 478 472 577
f 563 472 570
f 575 483 476
f 568 575 476
f 476 575 569
f 478 484 477
f 485 484 478
f 570 478 577
f 479 486 585
f 578 479 585
f 489 481 482
f 481 489 488
f 490 582 483
f 575 582 483
f 485 491 484
f 485 492 491
f 486 493 585
f 498 489 588
f 489 581 580
f 587 489 580
f 489 588 581
f 588 489 587
f 491 500 490
f 490 500 499
f 499 506 490
f 499 589 490
f 589 582 490
f 494 502 493
f 493 592 502
f 502 602 493
f 493 592 585
f 592 602 493
f 593 494 495
f 494 602 502
f 494 593 602
f 594 495 496
f 593 495 594
f 497 595 496
f 594 496 595
f 497 503 596
f 497 596 595
f 506 498 505
f 498 598 505
f 506 607 498
f 598 588 498
f 498 607 598
f 499 500 599
f 499 608 506
f 599 589 499
f 599 608 499
f 500 501 601
f 599 500 600
f 601 600 500
f 501 502 601
f 502 592 602
f 502 602 601
f 605 503 507
f 605 596 503
f 505 613 510
f 607 505 598
f 607 613 505
f 607 506 608
f 507 511 615
f 610 605 507
f 610 507 615
f 611 512 508
f 616 508 512
f 611 508 616
f 613 509 510
f 513 509 512
f 509 617 512
f 613 612 509
f 612 617 509
f 511 514 619
f 615 511 619
f 512 616 516
f 611 616 512
f 617 616 512
f 515 517 514
f 514 518 515
f 514 517 518
f 517 623 514
f 619 514 623
f 515 623 517
f 515 518 624
f 515 620 623
f 515 624 620
f 625 519 516
f 616 621 516
f 621 625 516
f 518 517 520
f 521 518 520
f 518 521 629
f 624 518 629
f 625 522 519
f 521 520 628
f 520 523 628
f 629 521 628
f 522 630 524
f 630 522 625
f 525 632 523
f 632 628 523
f 527 524 633
f 630 633 524
f 525 529 526
f 529 525 528
f 525 529 634
f 634 632 525
f 636 530 527
f 636 527 633
f 638 529 528
f 528 531 640
f 528 637 638
f 637 528 640
f 638 634 529
f 532 530 641
f 636 639 530
f 641 530 639
f 531 533 642
f 531 642 640
f 641 534 532
f 536 645 533
f 533 645 642
f 535 534 643
f 643 534 641
f 646 537 535
f 643 644 535
f 644 646 535
f 649 536 540
f 649 645 536
f 538 541 537
f 650 538 537
f 646 650 537
f 650 541 538
f 539 648 540
f 546 539 545
f 546 648 539
f 649 540 648
f 650 542 541
f 543 542 548
f 547 542 548
f 542 656 548
f 542 650 651
f 651 656 542
f 552 544 545
f 653 545 544
f 552 653 544
f 546 545 654
f 654 545 653
f 655 648 546
f 546 654 655
f 548 657 549
f 656 657 548
f 657 550 549
f 551 550 658
f 550 657 658
f 659 552 551
f 659 551 658
f 552 660 653
f 659 660 552
f 561 553 554
f 560 553 561
f 556 563 555
f 557 558 565
f 557 664 558
f 671 565 557
f 664 671 557
f 560 559 567
f 559 560 666
f 566 567 559
f 566 559 665
f 559 666 665
f 567 666 560
f 561 562 569
f 568 561 569
f 570 577 563
f 565 564 571
f 565 670 564
f 571 564 678
f 564 670 678
f 565 571 572
f 572 671 565
f 671 670 565
f 673 567 566
f 672 566 665
f 672 673 566
f 567 573 673
f 673 666 567
f 569 575 568
f 568 575 574
f 675 575 569
f 675 569 668
f 570 577 576
f 570 683 577
f 677 683 570
f 578 571 572
f 678 572 571
f 578 571 678
f 679 671 572
f 572 678 679
f 580 581 573
f 673 573 680
f 681 575 582
f 675 674 575
f 674 681 575
f 681 675 575
f 577 583 576
f 577 584 583
f 584 577 689
f 690 577 584
f 689 577 683
f 683 577 690
f 684 678 578
f 692 586 579
f 692 579 685
f 588 580 581
f 587 580 588
f 688 681 582
f 583 584 590
f 584 689 583
f 584 583 697
f 583 689 697
f 591 590 584
f 584 697 591
f 591 698 584
f 584 698 690
f 590 600 589
f 589 600 599
f 696 599 589
f 590 600 591
f 697 590 591
f 600 590 705
f 590 697 705
f 601 591 600
f 591 601 706
f 697 698 591
f 697 591 705
f 591 698 705
f 698 591 706
f 699 602 592
f 707 592 602
f 707 699 592
f 593 594 708
f 593 603 602
f 708 603 593
f 700 594 595
f 709 594 700
f 709 708 594
f 596 605 595
f 605 604 595
f 710 595 604
f 701 700 595
f 701 595 710
f 597 711 606
f 702 711 597
f 599 600 705
f 608 599 704
f 705 608 599
f 608 714 599
f 696 704 599
f 599 714 704
f 705 601 600
f 601 706 600
f 600 706 705
f 601 602 706
f 706 601 705
f 707 602 603
f 602 699 707
f 707 706 602
f 708 707 603
f 710 604 605
f 610 609 605
f 609 717 605
f 710 605 717
f 611 606 718
f 606 711 718
f 607 608 713
f 720 613 607
f 703 713 607
f 713 720 607
f 714 608 704
f 705 714 608
f 714 713 608
f 610 717 609
f 610 615 717
f 723 616 611
f 718 723 611
f 613 719 612
f 612 724 617
f 612 719 724
f 613 720 719
f 615 721 614
f 619 722 615
f 615 721 717
f 722 721 615
f 617 723 616
f 723 621 616
f 724 723 617
f 623 618 619
f 618 725 619
f 623 725 618
f 619 726 722
f 619 725 726
f 620 624 623
f 626 625 621
f 727 626 621
f 727 621 723
f 725 623 622
f 623 728 622
f 725 622 728
f 623 624 629
f 623 629 628
f 733 623 628
f 623 729 728
f 729 623 733
f 626 731 625
f 730 630 625
f 731 730 625
f 727 731 626
f 631 627 628
f 628 627 733
f 736 627 631
f 732 733 627
f 732 627 736
f 631 628 632
f 633 630 734
f 730 734 630
f 631 632 736
f 632 634 740
f 736 632 737
f 632 740 737
f 636 633 738
f 738 633 734
f 637 634 638
f 740 634 637
f 639 636 741
f 738 741 636
f 640 742 637
f 740 637 742
f 743 641 639
f 741 743 639
f 748 640 642
f 744 742 640
f 748 744 640
f 745 643 641
f 745 641 743
f 645 748 642
f 644 643 750
f 749 643 745
f 643 749 750
f 750 646 644
f 648 645 649
f 757 645 648
f 752 748 645
f 757 752 645
f 646 647 650
f 646 754 647
f 753 646 750
f 753 754 646
f 754 650 647
f 648 655 756
f 757 648 756
f 651 650 758
f 754 758 650
f 652 656 651
f 652 651 759
f 759 651 758
f 767 656 652
f 759 760 652
f 767 652 760
f 653 764 654
f 653 660 764
f 655 654 765
f 764 765 654
f 756 655 766
f 766 655 765
f 768 657 656
f 767 768 656
f 768 658 657
f 770 659 658
f 768 769 658
f 770 658 769
f 770 660 659
f 764 660 771
f 771 660 770
f 661 662 667
f 668 662 661
f 667 668 661
f 663 669 662
f 668 667 662
f 666 672 665
f 666 673 672
f 668 667 675
f 675 667 674
f 678 670 671
f 670 776 671
f 678 783 670
f 783 670 776
f 678 671 679
f 671 776 777
f 674 675 681
f 787 681 688
f 683 690 684
f 683 690 689
f 690 684 691
f 685 692 693
f 685 790 692
f 790 685 693
f 686 695 687
f 687 793 686
f 694 686 695
f 792 694 686
f 686 695 792
f 793 792 686
f 695 793 687
f 696 688 794
f 688 787 794
f 697 689 690
f 698 691 690
f 697 690 698
f 698 803 690
f 796 803 690
f 797 693 692
f 797 692 790
f 702 798 693
f 798 790 693
f 798 693 797
f 695 703 694
f 799 695 694
f 694 792 799
f 695 800 703
f 793 695 800
f 695 799 800
f 696 697 704
f 705 697 698
f 704 697 705
f 706 698 699
f 705 698 706
f 707 706 699
f 709 700 701
f 709 701 710
f 702 711 712
f 711 702 804
f 804 702 712
f 702 804 798
f 714 713 703
f 705 704 714
f 705 816 704
f 816 714 704
f 809 705 706
f 715 705 714
f 817 715 705
f 817 705 809
f 816 705 817
f 810 706 707
f 810 809 706
f 810 707 708
f 811 708 709
f 810 708 811
f 709 710 716
f 716 821 709
f 811 709 812
f 812 709 821
f 717 716 710
f 711 712 719
f 711 814 712
f 719 718 711
f 711 804 813
f 711 813 814
f 719 712 814
f 712 719 823
f 805 804 712
f 712 814 805
f 814 712 823
f 714 816 713
f 720 713 824
f 713 816 824
f 716 717 822
f 821 716 822
f 721 830 717
f 830 822 717
f 719 724 718
f 724 723 718
f 823 719 720
f 831 724 719
f 823 719 814
f 823 831 719
f 823 720 824
f 725 721 722
f 834 721 725
f 834 830 721
f 726 725 722
f 831 723 724
f 723 831 727
f 725 728 729
f 725 728 838
f 834 725 838
f 731 727 839
f 831 836 727
f 727 836 835
f 839 727 835
f 728 729 733
f 728 733 732
f 842 728 732
f 842 838 728
f 734 730 731
f 735 734 731
f 735 731 844
f 731 839 844
f 846 732 736
f 846 842 732
f 844 734 735
f 734 847 738
f 734 844 843
f 734 843 847
f 737 740 736
f 740 739 736
f 846 736 739
f 738 851 741
f 738 847 851
f 849 739 740
f 849 846 739
f 742 854 740
f 850 849 740
f 740 854 850
f 743 741 855
f 851 855 741
f 742 744 854
f 745 743 855
f 744 748 858
f 744 858 854
f 750 745 746
f 745 859 746
f 750 749 745
f 855 859 745
f 750 746 859
f 751 747 748
f 747 862 748
f 862 747 751
f 751 748 752
f 748 862 858
f 753 750 863
f 863 750 859
f 751 752 756
f 751 756 873
f 862 751 867
f 867 751 873
f 756 752 757
f 869 754 753
f 753 863 868
f 868 869 753
f 758 754 869
f 756 755 765
f 766 755 756
f 872 755 756
f 756 755 873
f 755 766 765
f 765 872 755
f 755 880 765
f 873 766 755
f 873 755 872
f 872 880 755
f 765 766 756
f 766 873 756
f 872 756 873
f 758 874 759
f 869 874 758
f 759 875 760
f 759 874 875
f 760 761 768
f 876 761 760
f 760 768 767
f 875 876 760
f 769 768 761
f 761 877 769
f 876 877 761
f 769 762 763
f 763 762 878
f 877 762 769
f 878 762 877
f 763 764 770
f 763 878 764
f 769 763 770
f 871 765 764
f 764 771 770
f 871 764 879
f 764 878 879
f 872 765 871
f 880 872 765
f 772 779 773
f 779 772 778
f 772 883 778
f 779 773 884
f 888 773 779
f 888 884 773
f 775 774 781
f 885 774 775
f 781 774 780
f 780 774 885
f 781 886 775
f 886 885 775
f 782 783 776
f 776 892 783
f 778 785 779
f 888 778 779
f 778 784 785
f 778 887 784
f 778 883 887
f 888 887 778
f 779 785 888
f 884 888 779
f 781 780 787
f 787 780 786
f 780 889 786
f 780 885 889
f 787 890 781
f 886 781 890
f 891 783 782
f 891 782 789
f 891 892 783
f 784 893 785
f 887 893 784
f 785 893 888
f 889 787 786
f 890 787 889
f 788 795 789
f 788 789 894
f 901 795 788
f 788 894 901
f 795 789 796
f 894 789 795
f 891 789 895
f 894 895 789
f 790 797 791
f 791 896 790
f 797 790 798
f 797 790 896
f 798 791 797
f 896 791 798
f 792 793 800
f 792 800 799
f 795 802 796
f 795 901 894
f 796 802 803
f 797 902 798
f 797 896 902
f 805 798 799
f 799 798 903
f 798 805 804
f 897 896 798
f 903 897 798
f 798 902 903
f 799 805 800
f 799 800 904
f 799 905 800
f 904 799 903
f 904 905 799
f 805 800 806
f 904 800 905
f 807 802 801
f 801 802 808
f 807 801 808
f 808 802 803
f 802 809 803
f 808 802 807
f 809 802 808
f 808 803 809
f 805 813 804
f 814 805 806
f 805 814 813
f 814 806 815
f 808 816 807
f 808 809 818
f 817 816 808
f 808 818 817
f 819 809 810
f 817 809 818
f 819 818 809
f 820 810 811
f 819 810 820
f 811 812 820
f 812 821 820
f 823 814 815
f 816 824 815
f 823 815 824
f 817 816 825
f 816 826 817
f 907 816 817
f 824 825 816
f 912 824 816
f 816 825 826
f 816 912 825
f 816 912 906
f 907 912 816
f 818 827 817
f 817 827 826
f 817 826 907
f 913 817 907
f 908 818 819
f 818 914 827
f 818 908 914
f 819 820 909
f 819 909 908
f 820 821 828
f 828 916 820
f 910 820 909
f 820 916 909
f 829 821 822
f 828 821 829
f 830 829 822
f 824 831 823
f 832 831 824
f 917 832 824
f 912 911 824
f 911 917 824
f 826 827 914
f 907 826 913
f 913 826 914
f 833 828 829
f 833 922 828
f 828 922 916
f 834 829 830
f 833 829 834
f 832 917 831
f 831 917 836
f 838 833 834
f 838 837 833
f 931 833 837
f 922 833 923
f 931 923 833
f 839 835 836
f 840 839 836
f 932 840 836
f 917 924 836
f 932 836 924
f 837 838 936
f 936 931 837
f 936 838 842
f 840 844 839
f 938 844 840
f 932 938 840
f 842 845 841
f 842 841 936
f 936 841 845
f 845 842 846
f 847 843 844
f 847 844 848
f 944 848 844
f 938 937 844
f 937 944 844
f 943 845 846
f 936 845 942
f 942 845 943
f 950 846 849
f 943 846 950
f 847 848 852
f 847 852 851
f 852 848 944
f 850 854 849
f 853 849 854
f 957 849 853
f 957 950 849
f 852 856 851
f 856 855 851
f 856 852 951
f 852 944 951
f 857 853 854
f 853 857 957
f 853 957 956
f 858 857 854
f 855 856 859
f 856 958 859
f 958 856 951
f 858 862 857
f 862 857 861
f 971 857 862
f 957 857 964
f 963 964 857
f 963 857 971
f 966 860 859
f 864 863 859
f 859 966 864
f 958 965 859
f 966 859 965
f 861 862 866
f 862 861 971
f 971 861 866
f 866 862 867
f 864 869 863
f 868 863 869
f 981 869 864
f 864 966 972
f 972 981 864
f 866 871 865
f 865 978 866
f 871 987 865
f 987 978 865
f 873 867 866
f 866 867 979
f 872 871 866
f 873 866 872
f 872 866 979
f 971 866 979
f 979 866 978
f 873 989 867
f 979 867 980
f 867 989 980
f 870 874 869
f 869 981 870
f 870 983 874
f 982 870 981
f 870 982 983
f 871 879 872
f 871 872 880
f 871 879 878
f 871 878 986
f 879 871 880
f 871 986 987
f 873 872 988
f 873 989 872
f 872 879 880
f 872 979 988
f 989 872 988
f 873 988 989
f 874 983 875
f 990 876 875
f 983 990 875
f 991 877 876
f 991 876 990
f 877 992 878
f 991 992 877
f 986 878 993
f 993 878 992
f 883 884 888
f 888 887 883
f 885 886 889
f 886 890 889
f 887 888 893
f 895 995 891
f 891 998 895
f 994 891 995
f 994 998 891
f 895 894 998
f 901 894 900
f 900 894 997
f 998 894 901
f 894 998 997
f 995 895 999
f 895 998 999
f 897 903 896
f 896 1000 897
f 1001 896 897
f 903 902 896
f 896 1001 1000
f 897 898 903
f 904 898 897
f 1002 897 898
f 903 904 897
f 1001 897 903
f 1000 1001 897
f 897 1002 1001
f 905 898 899
f 1003 899 898
f 904 903 898
f 904 898 905
f 1002 1003 898
f 899 1003 900
f 1004 901 900
f 997 1003 900
f 997 900 1004
f 900 1003 1004
f 998 901 1005
f 1004 1005 901
f 907 913 912
f 909 915 908
f 915 914 908
f 916 915 909
f 912 918 911
f 911 918 917
f 918 912 913
f 919 913 914
f 919 918 913
f 915 920 914
f 920 919 914
f 915 916 922
f 915 921 920
f 915 922 921
f 918 917 925
f 918 926 917
f 1007 917 918
f 925 924 917
f 917 926 925
f 1011 925 917
f 1006 917 1007
f 1011 917 1006
f 919 1008 918
f 918 925 926
f 1008 1007 918
f 927 920 919
f 919 920 1009
f 1008 919 1009
f 921 920 928
f 929 920 921
f 1010 920 921
f 920 929 928
f 920 1010 1009
f 921 922 930
f 921 928 929
f 929 921 930
f 921 929 1010
f 931 922 923
f 931 930 922
f 924 925 933
f 932 924 933
f 925 1011 933
f 929 930 934
f 935 934 929
f 1015 929 934
f 1010 929 1015
f 930 931 936
f 934 930 935
f 935 930 936
f 933 932 938
f 933 1017 932
f 938 932 1017
f 938 939 933
f 1018 933 1011
f 1018 1017 933
f 1023 934 935
f 1015 934 1023
f 941 935 936
f 1030 935 941
f 1030 1023 935
f 941 936 942
f 944 937 938
f 938 939 945
f 1025 939 938
f 944 938 945
f 1024 938 1017
f 1025 938 1024
f 939 946 945
f 946 939 1025
f 940 947 941
f 942 949 941
f 947 941 948
f 947 1035 941
f 941 949 948
f 1036 1030 941
f 1035 1036 941
f 942 943 950
f 950 949 942
f 944 945 952
f 944 952 951
f 945 946 952
f 953 952 946
f 953 946 1037
f 946 1025 1031
f 946 1031 1037
f 947 948 954
f 1035 947 954
f 947 954 1041
f 1035 947 1041
f 948 949 956
f 954 948 955
f 955 948 956
f 950 957 949
f 957 956 949
f 958 951 952
f 953 960 952
f 952 959 958
f 959 952 960
f 1042 960 953
f 1042 953 1037
f 955 961 954
f 954 955 1041
f 954 961 1046
f 1041 1035 954
f 1041 954 1046
f 962 955 956
f 955 962 961
f 957 964 956
f 962 956 963
f 963 956 964
f 959 966 958
f 958 966 965
f 959 960 966
f 960 967 966
f 967 960 1042
f 970 961 962
f 969 961 970
f 961 1050 969
f 961 1050 1046
f 962 963 970
f 962 963 971
f 963 971 970
f 966 967 973
f 966 973 972
f 974 967 968
f 1047 968 967
f 974 973 967
f 1047 967 1042
f 968 1047 974
f 978 970 969
f 969 977 978
f 977 1054 969
f 1054 1050 969
f 971 978 970
f 979 978 971
f 972 973 982
f 981 972 982
f 974 983 973
f 973 983 982
f 975 984 974
f 1052 975 974
f 974 984 983
f 1051 974 1047
f 1051 1052 974
f 976 984 975
f 976 975 1053
f 975 1052 1053
f 977 985 976
f 976 986 977
f 976 1053 977
f 1054 977 976
f 976 985 984
f 1054 976 1053
f 978 986 977
f 977 986 985
f 977 986 987
f 986 1054 977
f 1053 1054 977
f 978 987 986
f 989 979 980
f 988 979 989
f 983 984 991
f 983 991 990
f 985 992 984
f 991 984 992
f 986 992 985
f 993 992 986
f 1055 1054 986
f 998 994 995
f 995 999 998
f 997 1003 996
f 1002 996 1003
f 1004 997 998
f 1004 1003 997
f 1004 998 1005
f 1011 1006 1007
f 1058 1007 1008
f 1007 1012 1011
f 1057 1012 1007
f 1058 1057 1007
f 1058 1008 1009
f 1014 1009 1010
f 1009 1014 1059
f 1009 1059 1058
f 1014 1010 1015
f 1012 1057 1011
f 1018 1011 1061
f 1056 1011 1057
f 1056 1061 1011
f 1020 1012 1013
f 1013 1012 1057
f 1020 1019 1012
f 1012 1019 1057
f 1021 1013 1014
f 1058 1014 1013
f 1021 1020 1013
f 1057 1058 1013
f 1059 1014 1015
f 1014 1059 1021
f 1058 1059 1014
f 1016 1015 1023
f 1015 1022 1023
f 1022 1064 1015
f 1060 1059 1015
f 1064 1060 1015
f 1017 1018 1025
f 1024 1017 1025
f 1018 1019 1026
f 1061 1019 1018
f 1025 1018 1026
f 1018 1025 1061
f 1065 1025 1018
f 1061 1065 1018
f 1027 1019 1020
f 1027 1026 1019
f 1062 1057 1019
f 1062 1019 1061
f 1021 1027 1020
f 1021 1022 1028
f 1064 1022 1021
f 1028 1027 1021
f 1059 1063 1021
f 1063 1064 1021
f 1022 1023 1029
f 1022 1029 1028
f 1029 1022 1064
f 1030 1029 1023
f 1026 1065 1025
f 1065 1031 1025
f 1061 1025 1065
f 1033 1026 1027
f 1026 1033 1032
f 1026 1032 1066
f 1066 1065 1026
f 1028 1033 1027
f 1068 1028 1029
f 1034 1033 1028
f 1072 1034 1028
f 1068 1067 1028
f 1072 1028 1067
f 1068 1029 1030
f 1068 1029 1064
f 1035 1030 1036
f 1068 1030 1035
f 1069 1032 1031
f 1032 1074 1031
f 1031 1074 1037
f 1065 1069 1031
f 1033 1071 1032
f 1066 1032 1070
f 1032 1069 1070
f 1032 1071 1070
f 1032 1070 1074
f 1034 1071 1033
f 1034 1072 1071
f 1035 1041 1072
f 1068 1035 1073
f 1073 1035 1072
f 1042 1037 1038
f 1037 1074 1038
f 1038 1039 1044
f 1075 1039 1038
f 1043 1042 1038
f 1038 1044 1043
f 1038 1074 1070
f 1074 1075 1038
f 1040 1044 1039
f 1076 1040 1039
f 1075 1076 1039
f 1041 1046 1040
f 1072 1041 1040
f 1045 1044 1040
f 1040 1046 1045
f 1072 1040 1076
f 1043 1047 1042
f 1043 1044 1047
f 1045 1049 1044
f 1044 1048 1047
f 1044 1049 1048
f 1046 1050 1045
f 1045 1050 1049
f 1048 1051 1047
f 1049 1052 1048
f 1052 1051 1048
f 1049 1050 1054
f 1053 1052 1049
f 1053 1049 1054
f 1056 1057 1061
f 1062 1061 1057
f 1060 1064 1059
f 1063 1059 1064
f 1066 1070 1065
f 1070 1069 1065
f 1072 1067 1068
f 1068 1073 1072
f 1070 1071 1075
f 1070 1075 1074
f 1071 1072 1076
f 1071 1076 1075
